<svg fill="none" height="32" viewBox="0 0 32 32" width="32" xmlns="http://www.w3.org/2000/svg" xmlns:xlink="http://www.w3.org/1999/xlink"><mask id="a" height="32" maskUnits="userSpaceOnUse" width="32" x="0" y="0"><circle cx="16" cy="16" fill="#d9d9d9" r="16"/></mask><g mask="url(#a)"><path d="m19.1678 2h-6.2164c-.9564 1.08333-3.43203 5.33333-2.8691 10.2083.5003 4.3333 5.26 7.0417 5.26 7.5834v8.125l-2.8691 1.0833h6.1088 1.064l-2.8691-1.0833v-8.125c0-.5417 4.7819-3.25 5.2601-7.5834.3825-3.46663-1.7534-8.5833-2.8692-10.2083z" stroke="#e4db90"/><path d="m19.2165 13.833h-6.2164-2.6017c1.2724 3.3836 4.8619 5.4879 4.8619 5.9583v8.125l-3.8692 1.0834h7.1089 2.064l-3.8692-1.0834v-8.125c0-.4704 3.6062-2.5747 4.8685-5.9583z" fill="#e4db90"/><path d="m13.0001 13.833h6.2164m-2.5217 5.9583v8.125l3.8692 1.0834h-2.064-7.1089l3.8692-1.0834v-8.125c0-.4704-3.5895-2.5747-4.8619-5.9583h11.1649c-1.2623 3.3836-4.8685 5.4879-4.8685 5.9583z" stroke="#e4db90"/></g></svg>