<svg width="32" height="32" viewBox="0 0 32 32" fill="none" xmlns="http://www.w3.org/2000/svg">
<mask id="mask0_293_9830" style="mask-type:alpha" maskUnits="userSpaceOnUse" x="0" y="0" width="32" height="32">
<circle cx="16" cy="16" r="16" fill="#D9D9D9"/>
</mask>
<g mask="url(#mask0_293_9830)">
<path d="M19.0858 5H12.8694C11.913 6 9.43731 9 10.0002 13.5C10.5006 17.5 15.2603 20 15.2603 20.5V28L12.3912 29H18.5H19.564L16.6949 28V20.5C16.6949 20 21.4768 17.5 21.9549 13.5C22.3375 10.3 20.2016 6.5 19.0858 5Z" stroke="#942A3E"/>
<path d="M19.2165 15H13.0001H10.3984C11.6708 18.1233 15.2603 20.0658 15.2603 20.5V28L12.3911 29H18.5H19.564L16.6948 28V20.5C16.6948 20.0658 20.301 18.1233 21.5633 15H19.2165Z" fill="#942A3E"/>
<path d="M13.0001 15H19.2165M16.6948 20.5C16.6948 20.9 16.6948 25.6666 16.6948 28L19.564 29H18.5H12.3911L15.2603 28V20.5C15.2603 20.0658 11.6708 18.1233 10.3984 15H21.5633C20.301 18.1233 16.6948 20.0658 16.6948 20.5Z" stroke="#942A3E"/>
</g>
</svg>
