<svg width="32" height="32" viewBox="0 0 32 32" fill="none" xmlns="http://www.w3.org/2000/svg">
<mask id="mask0_293_9848" style="mask-type:alpha" maskUnits="userSpaceOnUse" x="0" y="0" width="32" height="32">
<circle cx="16" cy="16" r="16" fill="#D9D9D9"/>
</mask>
<g mask="url(#mask0_293_9848)">
<path d="M18.0703 3H13.9542C13.321 4.12346 11.6818 8.53086 12.0545 13.5864C12.3858 18.0802 15.5373 20.8889 15.5373 21.4506V29.8765L13.6376 31H17.6824H18.3869L16.4872 29.8765V21.4506C16.4872 20.8889 19.6534 18.0802 19.97 13.5864C20.2233 9.99136 18.8091 4.68519 18.0703 3Z" stroke="#DACE97"/>
<path d="M16.5116 29.8571V21.2857C16.5116 20.7895 20 18 20 14H12C12 18 15.4837 20.7895 15.4837 21.2857V29.8571L12.7113 31H17.805H19.284L16.5116 29.8571Z" fill="#DACE97"/>
<path d="M15 16C15 16.5523 14.5523 17 14 17C13.4477 17 13 16.5523 13 16C13 15.4477 13.4477 15 14 15C14.5523 15 15 15.4477 15 16Z" fill="white"/>
<path d="M17 18C17 18.5523 16.5523 19 16 19C15.4477 19 15 18.5523 15 18C15 17.4477 15.4477 17 16 17C16.5523 17 17 17.4477 17 18Z" fill="white"/>
</g>
</svg>
